<?xml version="1.0" encoding="iso-8859-1"?>
<!-- Generator: Adobe Illustrator 19.0.0, SVG Export Plug-In . SVG Version: 6.00 Build 0)  -->
<svg version="1.1" id="Capa_1" xmlns="http://www.w3.org/2000/svg" xmlns:xlink="http://www.w3.org/1999/xlink" x="0px" y="0px"
	 viewBox="0 0 472 472" style="enable-background:new 0 0 472 472;" xml:space="preserve">
<path style="fill:#DEDEDE;" d="M376,396c-15.464,0-28-12.536-28-28V189.184c-0.002-4.798-2.862-9.134-7.272-11.024L314.504,168H300
	v-16h16c0.987,0.001,1.966,0.182,2.888,0.536l27.88,10.808c10.423,4.358,17.214,14.543,17.232,25.84V368c0,6.627,5.373,12,12,12
	s12-5.373,12-12V128h16v240C404,383.464,391.464,396,376,396z"/>
<path style="fill:#4398D1;" d="M316,424H76V40c0-17.673,14.327-32,32-32h176c17.673,0,32,14.327,32,32V424z"/>
<path style="fill:#3E8CC7;" d="M76,349.464V424h240V90.4C273.644,205.24,187.274,298.47,76,349.464z"/>
<path style="fill:#DEDEDE;" d="M44,424h304v48H44V424z"/>
<path style="fill:#87CED9;" d="M116,56h160v96H116V56z"/>
<path style="fill:#78C3CF;" d="M152,152h124V56h-28L152,152z"/>
<g>
	<path style="fill:#3570AB;" d="M236,112h16v16h-16V112z"/>
	<path style="fill:#3570AB;" d="M204,112h16v16h-16V112z"/>
	<path style="fill:#3570AB;" d="M172,112h16v16h-16V112z"/>
</g>
<g>
	<path style="fill:#78C3CF;" d="M116,56h160v16H116V56z"/>
	<path style="fill:#78C3CF;" d="M116,56h16v96h-16V56z"/>
</g>
<path style="fill:#DE4C3C;" d="M252,200l-112,80h43.08L140,360l112-80h-43.08L252,200z"/>
<g>
	<path style="fill:#CFCFCF;" d="M276,424h72v48h-72V424z"/>
	<path style="fill:#CFCFCF;" d="M388,112h16v32h-16V112z"/>
</g>
<g>
	<path style="fill:#DEDEDE;" d="M380,72c-4.418,0-8-3.582-8-8V8c0-4.418,3.582-8,8-8s8,3.582,8,8v56C388,68.418,384.418,72,380,72z"
		/>
	<path style="fill:#DEDEDE;" d="M412,72c-4.418,0-8-3.582-8-8V8c0-4.418,3.582-8,8-8s8,3.582,8,8v56C420,68.418,416.418,72,412,72z"
		/>
</g>
<path style="fill:#4398D1;" d="M364,48h64l0,0v48c0,17.673-14.327,32-32,32s-32-14.327-32-32V48L364,48z"/>
<path style="fill:#3E8CC7;" d="M412,48v33.6c-0.024,20.682-16.449,37.616-37.12,38.272c13.11,11.74,33.255,10.628,44.994-2.482
	c5.264-5.878,8.159-13.5,8.126-21.39V48L412,48z"/>
<g>
</g>
<g>
</g>
<g>
</g>
<g>
</g>
<g>
</g>
<g>
</g>
<g>
</g>
<g>
</g>
<g>
</g>
<g>
</g>
<g>
</g>
<g>
</g>
<g>
</g>
<g>
</g>
<g>
</g>
</svg>
