<?xml version="1.0" encoding="utf-8"?>
<!-- Generator: Adobe Illustrator 16.0.0, SVG Export Plug-In . SVG Version: 6.00 Build 0)  -->
<!DOCTYPE svg PUBLIC "-//W3C//DTD SVG 1.1//EN" "http://www.w3.org/Graphics/SVG/1.1/DTD/svg11.dtd">
<svg version="1.1" id="Capa_1" xmlns="http://www.w3.org/2000/svg" xmlns:xlink="http://www.w3.org/1999/xlink" x="0px" y="0px"
	 width="100px" height="50px" viewBox="0 0 100 50" enable-background="new 0 0 100 50" xml:space="preserve">
<rect x="66.676" y="3.133" fill="#9A1914" width="1.874" height="15.935"/>
<path fill="#9A1914" d="M54.789,33.1v-6.658h1.251l3.141,4.025l3.065-4.025h1.241V33.1h-1.433v-4.113
	c0-0.08,0.006-0.182,0.016-0.303c0.011-0.121,0.024-0.258,0.04-0.409c-0.083,0.171-0.157,0.313-0.22,0.425
	c-0.063,0.111-0.119,0.203-0.171,0.274L59.219,32.3h-0.311l-2.509-3.339c-0.092-0.126-0.171-0.245-0.236-0.356
	c-0.065-0.11-0.118-0.22-0.161-0.325c0.014,0.139,0.022,0.266,0.029,0.379c0.006,0.113,0.009,0.223,0.009,0.328V33.1H54.789
	L54.789,33.1z"/>
<path fill="#9A1914" d="M64.577,33.1l3.771-6.658h1.494l3.821,6.658h-1.741l-0.801-1.458h-4.223L66.121,33.1H64.577z M67.559,30.441
	h2.92l-1.438-2.709L67.559,30.441z"/>
<polygon fill="#9A1914" points="74.106,33.1 77.262,29.679 74.05,26.441 76.104,26.441 78.231,28.703 80.253,26.441 82.036,26.441 
	79.133,29.502 82.723,33.1 80.619,33.1 78.182,30.518 75.933,33.1 "/>
<g>
	<path fill="#A09E9D" d="M18.015,35.583c0,0.056,0.02,0.104,0.055,0.145c0.036,0.042,0.087,0.063,0.155,0.065
		c0.068-0.002,0.12-0.023,0.156-0.065c0.036-0.041,0.054-0.089,0.054-0.145s-0.018-0.104-0.054-0.146
		c-0.037-0.041-0.088-0.063-0.156-0.064c-0.067,0.002-0.119,0.023-0.155,0.064C18.034,35.479,18.015,35.527,18.015,35.583
		 M18.398,37.908v-1.902h-0.348v1.902H18.398z"/>
	<path fill="#A09E9D" d="M19.85,37.908v-1.109c0.003-0.148,0.05-0.27,0.138-0.359c0.089-0.092,0.198-0.137,0.325-0.141
		c0.13,0.004,0.238,0.049,0.327,0.141c0.088,0.09,0.135,0.211,0.139,0.359v1.109h0.348v-1.109c-0.005-0.254-0.083-0.455-0.232-0.604
		c-0.15-0.148-0.343-0.225-0.582-0.227c-0.236,0.002-0.428,0.078-0.58,0.227c-0.149,0.148-0.227,0.35-0.231,0.604v1.109H19.85z"/>
	<path fill="#A09E9D" d="M22.376,37.908v-1.109c0.004-0.148,0.05-0.27,0.138-0.359c0.088-0.092,0.198-0.137,0.325-0.141
		c0.129,0.004,0.238,0.049,0.326,0.141c0.088,0.09,0.135,0.211,0.138,0.359v1.109h0.348v-1.109
		c-0.004-0.254-0.082-0.455-0.232-0.604c-0.15-0.148-0.343-0.225-0.581-0.227c-0.236,0.002-0.43,0.078-0.579,0.227
		c-0.15,0.148-0.229,0.35-0.232,0.604v1.109H22.376z"/>
	<path fill="#A09E9D" d="M24.856,36.958c0.003-0.198,0.061-0.356,0.175-0.476c0.115-0.119,0.263-0.18,0.447-0.183
		c0.184,0.003,0.333,0.063,0.446,0.183c0.114,0.119,0.173,0.277,0.176,0.476c-0.003,0.196-0.062,0.355-0.176,0.475
		c-0.114,0.118-0.263,0.181-0.446,0.183c-0.184-0.002-0.333-0.064-0.447-0.183C24.917,37.313,24.859,37.154,24.856,36.958
		 M24.491,36.958c0.003,0.196,0.048,0.369,0.139,0.517c0.09,0.148,0.209,0.264,0.358,0.347s0.312,0.126,0.49,0.128
		c0.178-0.002,0.341-0.045,0.49-0.128c0.148-0.083,0.268-0.198,0.357-0.347c0.09-0.147,0.136-0.32,0.139-0.517
		c-0.003-0.197-0.049-0.37-0.139-0.519c-0.089-0.147-0.209-0.263-0.357-0.346c-0.149-0.083-0.313-0.125-0.49-0.126
		c-0.178,0.001-0.341,0.043-0.49,0.126s-0.268,0.197-0.358,0.346C24.539,36.588,24.495,36.761,24.491,36.958"/>
	<path fill="#A09E9D" d="M28.563,36.006l-0.55,1.475l-0.555-1.475h-0.38l0.662,1.748c0.03,0.084,0.068,0.137,0.112,0.161
		c0.043,0.024,0.095,0.036,0.156,0.033c0.061,0.003,0.115-0.009,0.158-0.033c0.043-0.024,0.081-0.077,0.113-0.161l0.666-1.748
		H28.563z"/>
	<path fill="#A09E9D" d="M31.475,37.908V36.87c-0.003-0.277-0.09-0.495-0.259-0.657c-0.17-0.16-0.403-0.242-0.7-0.244
		c-0.308,0.006-0.548,0.1-0.721,0.28s-0.259,0.411-0.262,0.688c0.001,0.189,0.042,0.359,0.12,0.511
		c0.08,0.151,0.189,0.272,0.329,0.362c0.14,0.089,0.302,0.135,0.485,0.139c0.119-0.002,0.218-0.02,0.296-0.053
		c0.08-0.035,0.153-0.078,0.22-0.13v-0.413c-0.061,0.078-0.129,0.141-0.21,0.188c-0.08,0.048-0.17,0.074-0.27,0.074
		c-0.185-0.005-0.335-0.068-0.448-0.191c-0.113-0.125-0.171-0.277-0.175-0.457c0.002-0.186,0.059-0.343,0.169-0.469
		c0.11-0.127,0.263-0.193,0.458-0.199c0.165,0.001,0.307,0.047,0.428,0.137s0.185,0.225,0.19,0.404v1.068H31.475L31.475,37.908z"/>
	<path fill="#A09E9D" d="M33.64,36.006h-0.332c-0.152,0.002-0.3,0.039-0.445,0.111c-0.145,0.074-0.265,0.182-0.362,0.322
		c-0.095,0.143-0.144,0.314-0.147,0.519c0.003,0.204,0.053,0.377,0.147,0.519c0.097,0.141,0.217,0.248,0.362,0.32
		c0.146,0.074,0.293,0.111,0.445,0.111h0.332v-0.332h-0.269c-0.112-0.001-0.217-0.023-0.316-0.07
		c-0.099-0.047-0.18-0.116-0.243-0.209c-0.062-0.091-0.093-0.204-0.096-0.339c0.003-0.136,0.035-0.249,0.096-0.341
		c0.063-0.092,0.144-0.16,0.243-0.208c0.099-0.046,0.204-0.069,0.316-0.069h0.269V36.006z"/>
	<path fill="#A09E9D" d="M34.607,35.583c0,0.056,0.019,0.104,0.054,0.145c0.036,0.042,0.088,0.063,0.156,0.065
		c0.067-0.002,0.12-0.023,0.155-0.065c0.036-0.041,0.054-0.089,0.054-0.145s-0.018-0.104-0.054-0.146
		c-0.035-0.041-0.088-0.063-0.155-0.064c-0.068,0.002-0.12,0.023-0.156,0.064C34.625,35.479,34.607,35.527,34.607,35.583
		 M34.991,37.908v-1.902h-0.348v1.902H34.991z"/>
	<path fill="#A09E9D" d="M36.394,36.958c0.004-0.198,0.062-0.356,0.176-0.475c0.114-0.12,0.263-0.181,0.447-0.184
		c0.184,0.003,0.332,0.063,0.447,0.184c0.114,0.118,0.172,0.276,0.175,0.475c-0.002,0.196-0.061,0.355-0.175,0.475
		c-0.115,0.119-0.263,0.181-0.447,0.183c-0.184-0.002-0.333-0.063-0.447-0.183C36.456,37.313,36.398,37.154,36.394,36.958
		 M36.03,36.958c0.002,0.196,0.049,0.369,0.139,0.517c0.09,0.148,0.209,0.264,0.358,0.348c0.149,0.082,0.312,0.125,0.49,0.126
		c0.178-0.001,0.343-0.044,0.49-0.126c0.149-0.084,0.268-0.199,0.358-0.348c0.09-0.147,0.137-0.32,0.139-0.517
		c-0.002-0.197-0.049-0.37-0.139-0.519c-0.09-0.147-0.209-0.264-0.358-0.346c-0.147-0.083-0.312-0.125-0.49-0.127
		c-0.178,0.002-0.341,0.044-0.49,0.127c-0.148,0.082-0.268,0.198-0.358,0.346C36.079,36.588,36.033,36.761,36.03,36.958
		 M36.756,35.777h0.269l0.515-0.563h-0.428L36.756,35.777z"/>
	<path fill="#A09E9D" d="M39.194,37.908v-1.109c0.004-0.148,0.051-0.27,0.139-0.359c0.088-0.092,0.197-0.137,0.325-0.141
		c0.129,0.004,0.238,0.049,0.327,0.141c0.088,0.09,0.134,0.211,0.138,0.359v1.109h0.347v-1.109
		c-0.004-0.254-0.082-0.455-0.231-0.604c-0.15-0.148-0.344-0.225-0.581-0.227c-0.236,0.002-0.429,0.078-0.58,0.227
		c-0.149,0.148-0.227,0.35-0.231,0.604v1.109H39.194z"/>
	<path fill="#A09E9D" d="M44.888,38.764v-1.75c-0.004-0.318-0.095-0.57-0.27-0.758c-0.175-0.188-0.405-0.283-0.689-0.288
		c-0.207,0.003-0.383,0.05-0.529,0.144c-0.147,0.094-0.259,0.219-0.336,0.375s-0.117,0.328-0.117,0.519
		c0.002,0.179,0.045,0.339,0.129,0.481c0.083,0.142,0.194,0.254,0.332,0.335c0.138,0.083,0.289,0.126,0.455,0.127
		c0.095,0.001,0.188-0.011,0.278-0.032c0.09-0.021,0.177-0.055,0.261-0.103v-0.364c-0.066,0.045-0.141,0.084-0.228,0.116
		s-0.17,0.049-0.252,0.05c-0.191-0.002-0.343-0.063-0.455-0.18c-0.111-0.117-0.169-0.275-0.172-0.474
		c0.003-0.198,0.063-0.356,0.178-0.478c0.114-0.119,0.267-0.182,0.456-0.185c0.171,0,0.314,0.063,0.431,0.192
		c0.115,0.129,0.175,0.322,0.18,0.584v1.688H44.888L44.888,38.764z"/>
	<path fill="#A09E9D" d="M47.051,36.006v1.11c-0.004,0.149-0.05,0.269-0.139,0.36c-0.088,0.09-0.197,0.137-0.326,0.139
		c-0.128-0.002-0.237-0.049-0.325-0.139c-0.088-0.092-0.134-0.211-0.139-0.36v-1.11h-0.348v1.11
		c0.004,0.253,0.082,0.454,0.232,0.604c0.149,0.148,0.342,0.226,0.579,0.229c0.237-0.003,0.43-0.08,0.58-0.229
		c0.15-0.149,0.228-0.351,0.233-0.604v-1.11H47.051z"/>
	<path fill="#A09E9D" d="M50.147,36.569c-0.088-0.187-0.208-0.333-0.36-0.44c-0.152-0.105-0.338-0.16-0.56-0.162
		c-0.178,0.002-0.341,0.044-0.49,0.127s-0.267,0.198-0.357,0.346c-0.09,0.148-0.137,0.321-0.138,0.519
		c0.001,0.196,0.048,0.369,0.138,0.517c0.09,0.148,0.208,0.265,0.357,0.347c0.149,0.083,0.312,0.126,0.49,0.127
		c0.279-0.005,0.506-0.089,0.686-0.253c0.179-0.164,0.281-0.373,0.305-0.631l-0.353-0.043c-0.032,0.177-0.096,0.32-0.192,0.428
		c-0.095,0.108-0.244,0.164-0.447,0.166c-0.183-0.002-0.333-0.063-0.446-0.183c-0.114-0.119-0.172-0.276-0.175-0.475
		c0.003-0.197,0.062-0.356,0.175-0.474c0.113-0.121,0.263-0.182,0.446-0.185c0.104,0.001,0.188,0.017,0.252,0.048
		c0.063,0.029,0.123,0.074,0.18,0.135l-0.939,0.523l0.143,0.277L50.147,36.569z"/>
	<path fill="#A09E9D" d="M17.679,33.225v-6.659h4.285c1.222,0,2.163,0.286,2.821,0.856c0.656,0.57,0.985,1.383,0.985,2.432
		c0,0.622-0.127,1.182-0.385,1.68c-0.255,0.498-0.618,0.89-1.084,1.174c-0.29,0.182-0.65,0.313-1.081,0.395
		c-0.43,0.082-0.982,0.123-1.654,0.123H17.679z M19.228,31.973h2.005c1.068,0,1.824-0.166,2.27-0.498
		c0.446-0.332,0.669-0.882,0.669-1.646c0-0.682-0.186-1.197-0.555-1.549c-0.37-0.352-0.917-0.527-1.639-0.527h-2.75V31.973
		L19.228,31.973z"/>
	<path fill="#9A1914" d="M50.506,31.707c-0.116-0.83-0.173-1.656-0.173-2.473c0.001-7.408,4.675-14.001,11.583-16.521l0.641,1.76
		c-6.17,2.249-10.352,8.15-10.351,14.76c0,0.73,0.052,1.468,0.155,2.212c1.104,7.862,7.847,13.548,15.563,13.548
		c0.729,0,1.468-0.051,2.211-0.156c7.864-1.103,13.55-7.846,13.55-15.562c0-0.729-0.051-1.468-0.155-2.211
		c-0.842-5.992-4.953-10.715-10.278-12.628l0.634-1.764c5.956,2.138,10.557,7.428,11.5,14.131c0.116,0.83,0.174,1.654,0.174,2.472
		c-0.001,8.643-6.362,16.179-15.162,17.417c-0.831,0.117-1.657,0.174-2.473,0.174C59.281,46.867,51.744,40.506,50.506,31.707"/>
</g>
<polygon fill="#A09E9D" points="28.605,33.225 28.605,26.566 30.155,26.566 30.155,29.146 34.994,29.146 34.994,26.566 
	36.556,26.566 36.556,33.225 34.994,33.225 34.994,30.359 30.155,30.359 30.155,33.225 "/>
<polygon fill="#A09E9D" points="39.954,33.225 39.954,26.566 46.769,26.566 46.769,27.701 41.504,27.701 41.504,29.186 
	44.575,29.186 44.575,30.32 41.504,30.32 41.504,31.974 46.833,31.974 46.833,33.225 "/>
<path fill="#9A1914" d="M56.834,38.904h0.975c0.171,0.002,0.313-0.042,0.421-0.129c0.109-0.088,0.166-0.221,0.169-0.4
	c-0.006-0.167-0.069-0.293-0.188-0.379c-0.119-0.084-0.256-0.146-0.413-0.189s-0.294-0.084-0.413-0.125s-0.182-0.101-0.188-0.18
	c0.002-0.059,0.02-0.102,0.053-0.127c0.031-0.026,0.09-0.039,0.173-0.038h0.88v-0.334h-0.82c-0.209,0.001-0.369,0.045-0.48,0.132
	s-0.167,0.215-0.168,0.384c0.006,0.161,0.068,0.282,0.186,0.365c0.121,0.081,0.258,0.144,0.414,0.187s0.293,0.086,0.414,0.129
	c0.117,0.044,0.181,0.107,0.187,0.191c0.001,0.061-0.016,0.105-0.052,0.137c-0.035,0.029-0.094,0.045-0.174,0.045h-0.975V38.904
	L56.834,38.904z"/>
<path fill="#9A1914" d="M59.502,37.955c0.003-0.197,0.061-0.355,0.176-0.475c0.113-0.119,0.264-0.182,0.447-0.184
	c0.184,0.002,0.332,0.064,0.446,0.184c0.113,0.119,0.173,0.277,0.175,0.475c-0.002,0.196-0.062,0.355-0.175,0.475
	c-0.114,0.119-0.263,0.18-0.446,0.184c-0.184-0.004-0.334-0.064-0.447-0.184C59.563,38.311,59.505,38.151,59.502,37.955
	 M59.138,37.955c0.003,0.196,0.048,0.369,0.139,0.518c0.09,0.147,0.21,0.264,0.357,0.347c0.149,0.083,0.312,0.125,0.491,0.126
	c0.178-0.001,0.341-0.043,0.489-0.126c0.147-0.083,0.269-0.199,0.357-0.347c0.091-0.148,0.138-0.321,0.138-0.518
	c0-0.197-0.047-0.37-0.138-0.518c-0.089-0.148-0.21-0.264-0.357-0.347c-0.148-0.083-0.312-0.125-0.489-0.127
	c-0.18,0.002-0.342,0.044-0.491,0.127c-0.147,0.083-0.268,0.198-0.357,0.347C59.186,37.585,59.141,37.758,59.138,37.955"/>
<path fill="#9A1914" d="M61.95,38.904h0.349v-0.886c0.001-0.257,0.048-0.44,0.141-0.554c0.094-0.115,0.224-0.171,0.395-0.168h0.051
	v-0.332h-0.08c-0.115-0.002-0.215,0.018-0.299,0.059c-0.084,0.039-0.156,0.107-0.215,0.198h-0.008v-0.218H61.95V38.904L61.95,38.904
	z"/>
<path fill="#9A1914" d="M63.932,39.762v-1.688c0.004-0.262,0.064-0.457,0.18-0.584c0.116-0.129,0.259-0.193,0.43-0.193
	c0.19,0.002,0.343,0.064,0.458,0.186c0.115,0.119,0.175,0.279,0.177,0.477c-0.002,0.199-0.06,0.357-0.173,0.475
	c-0.11,0.117-0.263,0.177-0.452,0.18c-0.082-0.002-0.167-0.019-0.252-0.051c-0.086-0.032-0.164-0.07-0.229-0.117v0.365
	c0.083,0.047,0.17,0.082,0.262,0.102c0.089,0.023,0.183,0.033,0.277,0.033c0.165-0.002,0.316-0.045,0.454-0.127
	c0.139-0.082,0.248-0.194,0.333-0.336c0.082-0.141,0.126-0.301,0.129-0.479c-0.002-0.19-0.041-0.364-0.118-0.521
	c-0.077-0.155-0.188-0.28-0.337-0.374c-0.145-0.094-0.321-0.142-0.529-0.144c-0.283,0.004-0.514,0.1-0.688,0.288
	c-0.176,0.188-0.266,0.439-0.271,0.757v1.752H63.932L63.932,39.762z"/>
<path fill="#9A1914" d="M66.352,38.904h0.348v-0.886c0.002-0.257,0.049-0.44,0.143-0.554c0.092-0.115,0.224-0.171,0.393-0.168h0.053
	v-0.332h-0.08c-0.116-0.002-0.216,0.018-0.301,0.059c-0.084,0.039-0.154,0.107-0.214,0.198h-0.009v-0.218h-0.332V38.904
	L66.352,38.904z"/>
<path fill="#9A1914" d="M69.852,37.566c-0.089-0.186-0.209-0.333-0.361-0.439c-0.15-0.106-0.338-0.161-0.558-0.162
	c-0.179,0.002-0.343,0.043-0.491,0.126s-0.268,0.198-0.357,0.347c-0.09,0.147-0.137,0.32-0.139,0.518
	c0.002,0.197,0.049,0.369,0.139,0.518c0.09,0.147,0.209,0.264,0.357,0.347s0.313,0.125,0.491,0.126
	c0.277-0.006,0.505-0.09,0.685-0.253s0.28-0.374,0.305-0.63l-0.354-0.044c-0.03,0.177-0.094,0.319-0.189,0.428
	s-0.244,0.163-0.446,0.167c-0.185-0.004-0.333-0.064-0.447-0.184s-0.173-0.277-0.177-0.475c0.004-0.197,0.063-0.355,0.177-0.475
	s0.263-0.18,0.447-0.184c0.104,0,0.188,0.016,0.251,0.047s0.123,0.076,0.18,0.137l-0.938,0.521l0.143,0.278L69.852,37.566z"/>
<path fill="#9A1914" d="M71.105,38.904v-1.108c0.004-0.149,0.05-0.269,0.139-0.359c0.09-0.091,0.197-0.138,0.326-0.14
	c0.127,0.002,0.236,0.049,0.326,0.14c0.088,0.091,0.134,0.21,0.137,0.359v1.108h0.35v-1.108c-0.006-0.253-0.083-0.454-0.232-0.603
	c-0.15-0.15-0.344-0.226-0.58-0.229c-0.236,0.003-0.431,0.078-0.58,0.229c-0.15,0.148-0.229,0.35-0.232,0.603v1.108H71.105z"/>
<path fill="#9A1914" d="M74.803,36.133v1.703c-0.006,0.262-0.064,0.457-0.18,0.584c-0.116,0.129-0.26,0.193-0.432,0.193
	c-0.188-0.004-0.342-0.066-0.457-0.186s-0.174-0.279-0.178-0.477c0.004-0.199,0.061-0.357,0.173-0.475
	c0.112-0.116,0.265-0.178,0.454-0.18c0.082,0,0.166,0.019,0.252,0.051s0.162,0.07,0.229,0.115v-0.364
	c-0.084-0.047-0.17-0.081-0.261-0.103s-0.184-0.032-0.278-0.032c-0.166,0.003-0.316,0.044-0.455,0.127s-0.248,0.194-0.332,0.336
	s-0.127,0.302-0.129,0.48c0,0.19,0.039,0.362,0.117,0.521c0.078,0.155,0.189,0.28,0.336,0.373c0.146,0.094,0.322,0.143,0.529,0.145
	c0.284-0.005,0.514-0.101,0.689-0.288s0.266-0.44,0.27-0.757v-1.768H74.803L74.803,36.133z"/>
<path fill="#9A1914" d="M77.884,37.566c-0.089-0.186-0.208-0.333-0.36-0.439c-0.15-0.106-0.338-0.161-0.559-0.162
	c-0.18,0.002-0.342,0.043-0.492,0.126c-0.146,0.083-0.267,0.198-0.356,0.347c-0.09,0.147-0.136,0.32-0.138,0.518
	c0.002,0.197,0.048,0.369,0.138,0.518c0.09,0.147,0.21,0.264,0.356,0.347c0.15,0.083,0.313,0.125,0.492,0.126
	c0.277-0.006,0.506-0.09,0.685-0.253s0.282-0.374,0.306-0.63l-0.354-0.044c-0.031,0.177-0.096,0.319-0.19,0.428
	c-0.096,0.108-0.245,0.163-0.446,0.167c-0.184-0.004-0.334-0.064-0.447-0.184s-0.172-0.277-0.176-0.475
	c0.004-0.197,0.063-0.355,0.176-0.475s0.264-0.18,0.447-0.184c0.104,0,0.188,0.016,0.25,0.047c0.064,0.031,0.124,0.076,0.181,0.137
	l-0.938,0.521L76.6,38.28L77.884,37.566z"/>
</svg>
