<svg height="512" viewBox="0 0 64 64" width="512" xmlns="http://www.w3.org/2000/svg"><g id="flat"><path d="m3 3h58v8h-58z" fill="#da1c4b"/><path d="m5 11h54v4h-54z" fill="#87cee9"/><path d="m12 33h16a0 0 0 0 1 0 0v22a2 2 0 0 1 -2 2h-12a2 2 0 0 1 -2-2v-22a0 0 0 0 1 0 0z" fill="#da1c4b" transform="matrix(-1 0 0 -1 40 90)"/><path d="m16 37h8v4h-8z" fill="#ffd782" transform="matrix(-1 0 0 -1 40 78)"/><path d="m10 57h20v4h-20z" fill="#b11e48" transform="matrix(-1 0 0 -1 40 118)"/><g fill="#f4f4e6"><path d="m21 44h4v2h-4z"/><path d="m15 44h4v2h-4z"/><path d="m23 48h2v2h-2z"/><path d="m19 48h2v2h-2z"/><path d="m15 48h2v2h-2z"/></g><path d="m6 56a3 3 0 0 1 -3-3v-11a3 3 0 0 1 3-3h2v2h-2a1 1 0 0 0 -1 1v11a1 1 0 0 0 2 0v-2a3 3 0 0 1 3-3h2v2h-2a1 1 0 0 0 -1 1v2a3 3 0 0 1 -3 3z" fill="#87cee9"/><path d="m8 42 4 2v-5h-4z" fill="#b11e48"/><path d="m17 15h6v18h-6z" fill="#32b1cc" transform="matrix(-1 0 0 -1 40 48)"/><path d="m38 33h12a2 2 0 0 1 2 2v22a0 0 0 0 1 0 0h-16a0 0 0 0 1 0 0v-22a2 2 0 0 1 2-2z" fill="#da1c4b"/><path d="m40 37h8v4h-8z" fill="#ffd782"/><path d="m34 57h20v4h-20z" fill="#b11e48"/><path d="m39 44h4v2h-4z" fill="#f4f4e6"/><path d="m45 44h4v2h-4z" fill="#f4f4e6"/><path d="m39 48h2v2h-2z" fill="#f4f4e6"/><path d="m43 48h2v2h-2z" fill="#f4f4e6"/><path d="m47 48h2v2h-2z" fill="#f4f4e6"/><path d="m58 56a3 3 0 0 1 -3-3v-2a1 1 0 0 0 -1-1h-2v-2h2a3 3 0 0 1 3 3v2a1 1 0 0 0 2 0v-11a1 1 0 0 0 -1-1h-2v-2h2a3 3 0 0 1 3 3v11a3 3 0 0 1 -3 3z" fill="#87cee9"/><path d="m56 42-4 2v-5h4z" fill="#b11e48"/><path d="m41 15h6v18h-6z" fill="#32b1cc"/><path d="m23 6h18v2h-18z" fill="#f4f4e6"/><path d="m19 6h2v2h-2z" fill="#f4f4e6"/><path d="m43 6h2v2h-2z" fill="#f4f4e6"/><path d="m27 19h10v6h-10z" fill="#f98c96"/><path d="m28 15h2v4h-2z" fill="#f9bb4b"/><path d="m34 15h2v4h-2z" fill="#f9bb4b"/></g></svg>